<svg width="20" height="20" viewBox="0 0 20 20" fill="none" xmlns="http://www.w3.org/2000/svg">
<path d="M10 20C15.5228 20 20 15.5228 20 10C20 4.47715 15.5228 0 10 0C4.47715 0 0 4.47715 0 10C0 15.5228 4.47715 20 10 20Z" fill="#627EEA"/>
<path d="M9.99866 2.00009V7.91342L14.9967 10.1468L9.99866 2.00009Z" fill="white" fill-opacity="0.602"/>
<path d="M9.99867 2.00009L5 10.1468L9.99867 7.91342V2.00009Z" fill="white"/>
<path d="M9.99866 13.9788V17.9968L15 11.0774L9.99866 13.9788Z" fill="white" fill-opacity="0.602"/>
<path d="M9.99867 17.9968V13.9781L5 11.0774L9.99867 17.9968Z" fill="white"/>
<path d="M9.99866 13.0488L14.9967 10.1468L9.99866 7.91476V13.0488Z" fill="white" fill-opacity="0.2"/>
<path d="M5 10.1468L9.99867 13.0488V7.91476L5 10.1468Z" fill="white" fill-opacity="0.602"/>
</svg>
