<svg width="20" height="20" viewBox="0 0 20 20" fill="none" xmlns="http://www.w3.org/2000/svg">
<path d="M15.1436 6.47593C14.7781 6.26705 14.3081 6.26705 13.8903 6.47593L10.9661 8.19916L8.98172 9.29577L6.10966 11.019C5.74412 11.2279 5.27415 11.2279 4.8564 11.019L2.61097 9.6613C2.24543 9.45243 1.98433 9.03467 1.98433 8.5647V5.95373C1.98433 5.53598 2.19321 5.11822 2.61097 4.85713L4.8564 3.55164C5.22193 3.34277 5.69191 3.34277 6.10966 3.55164L8.35509 4.90935C8.72063 5.11822 8.98172 5.53598 8.98172 6.00595V7.72919L10.9661 6.58036V4.80491C10.9661 4.38715 10.7572 3.9694 10.3394 3.7083L6.16188 1.25399C5.79634 1.04512 5.32637 1.04512 4.90862 1.25399L0.626632 3.76052C0.208877 3.9694 0 4.38715 0 4.80491V9.71352C0 10.1313 0.208877 10.549 0.626632 10.8101L4.8564 13.2644C5.22193 13.4733 5.69191 13.4733 6.10966 13.2644L8.98172 11.5934L10.9661 10.4446L13.8381 8.77358C14.2037 8.5647 14.6736 8.5647 15.0914 8.77358L17.3368 10.0791C17.7023 10.2879 17.9634 10.7057 17.9634 11.1757V13.7866C17.9634 14.2044 17.7546 14.6221 17.3368 14.8832L15.1436 16.1887C14.7781 16.3976 14.3081 16.3976 13.8903 16.1887L11.6449 14.8832C11.2794 14.6744 11.0183 14.2566 11.0183 13.7866V12.1156L9.03394 13.2644V14.9877C9.03394 15.4054 9.24282 15.8232 9.66057 16.0843L13.8903 18.5386C14.2559 18.7475 14.7258 18.7475 15.1436 18.5386L19.3734 16.0843C19.7389 15.8754 20 15.4576 20 14.9877V10.0268C20 9.60909 19.7911 9.19133 19.3734 8.93023L15.1436 6.47593Z" fill="#8247E5"/>
</svg>
